<svg width="40" height="38" viewBox="0 0 40 38" fill="none" xmlns="http://www.w3.org/2000/svg">
<rect width="40" height="38" rx="11" fill="#F0E2BB"/>
<path d="M26.5744 28.9998L30.111 28.9998C30.2255 29.0021 30.3392 28.9822 30.4459 28.9413C30.5525 28.9004 30.6498 28.8393 30.7324 28.7615C30.8149 28.6836 30.8811 28.5906 30.927 28.4876C30.9729 28.3847 30.9977 28.2739 31 28.1615L31 24.8335C31 24.3719 30.6019 23.9968 30.111 23.9968L26.5744 23.9968C26.46 23.9943 26.3462 24.0139 26.2395 24.0546C26.1328 24.0953 26.0353 24.1563 25.9526 24.234C25.8699 24.3117 25.8036 24.4046 25.7575 24.5075C25.7114 24.6103 25.6864 24.7211 25.6839 24.8335L25.6839 28.1615C25.6861 28.274 25.711 28.3849 25.757 28.488C25.803 28.591 25.8693 28.6842 25.952 28.762C26.0347 28.8399 26.1323 28.901 26.2391 28.9418C26.3459 28.9826 26.4598 29.0023 26.5744 28.9998ZM18.2317 28.9998L21.7683 28.9998C21.8829 29.0023 21.9968 28.9826 22.1036 28.9418C22.2104 28.901 22.308 28.8399 22.3907 28.762C22.4734 28.6842 22.5397 28.591 22.5857 28.488C22.6317 28.3849 22.6566 28.274 22.6589 28.1615L22.6589 24.8335C22.6589 24.3719 22.2592 23.9968 21.7683 23.9968L18.2317 23.9968C18.0008 23.9921 17.7776 24.0776 17.6109 24.2345C17.4442 24.3914 17.3478 24.6068 17.3427 24.8335L17.3427 28.1615C17.345 28.2739 17.3698 28.3847 17.4157 28.4876C17.4617 28.5906 17.5278 28.6836 17.6103 28.7615C17.6929 28.8393 17.7902 28.9004 17.8969 28.9413C18.0035 28.9822 18.1172 29.0021 18.2317 28.9998ZM9.89055 28.9998L13.4272 28.9998C13.5416 29.0021 13.6554 28.9822 13.762 28.9413C13.8686 28.9004 13.966 28.8393 14.0485 28.7615C14.1311 28.6836 14.1972 28.5906 14.2431 28.4876C14.289 28.3847 14.3138 28.2739 14.3161 28.1615L14.3161 24.8335C14.3161 24.3719 13.918 23.9968 13.4272 23.9968L9.89055 23.9968C9.77611 23.9943 9.6623 24.0139 9.5556 24.0546C9.44891 24.0953 9.35142 24.1563 9.26872 24.234C9.18602 24.3117 9.11972 24.4046 9.07361 24.5075C9.0275 24.6103 9.00249 24.7211 9 24.8335L9 28.1615C9.00228 28.274 9.02715 28.3849 9.07316 28.488C9.11918 28.591 9.18544 28.6842 9.26817 28.762C9.35089 28.8399 9.44844 28.901 9.55524 28.9418C9.66204 28.9826 9.77598 29.0023 9.89055 28.9998ZM26.5744 21.5054L30.111 21.5054C30.3419 21.5101 30.5652 21.4246 30.7318 21.2677C30.8985 21.1108 30.995 20.8954 31 20.6687L31 17.3407C31 16.8776 30.6019 16.504 30.111 16.504L26.5744 16.504C26.46 16.5015 26.3462 16.5211 26.2395 16.5618C26.1328 16.6025 26.0353 16.6635 25.9526 16.7412C25.8699 16.8189 25.8036 16.9118 25.7575 17.0147C25.7114 17.1176 25.6864 17.2283 25.6839 17.3407L25.6839 20.6687C25.6864 20.7811 25.7114 20.8919 25.7575 20.9947C25.8036 21.0976 25.8699 21.1905 25.9526 21.2682C26.0353 21.3459 26.1328 21.4069 26.2395 21.4476C26.3462 21.4883 26.46 21.5079 26.5744 21.5054ZM18.2317 21.5054L21.7683 21.5054C21.8827 21.5079 21.9966 21.4883 22.1033 21.4476C22.21 21.4069 22.3074 21.3459 22.3901 21.2682C22.4728 21.1905 22.5391 21.0976 22.5852 20.9947C22.6314 20.8919 22.6564 20.7811 22.6589 20.6687L22.6589 17.3407C22.6589 16.8776 22.2592 16.504 21.7683 16.504L18.2317 16.504C18.0008 16.4993 17.7776 16.5849 17.6109 16.7417C17.4442 16.8986 17.3478 17.114 17.3427 17.3407L17.3427 20.6687C17.3478 20.8954 17.4442 21.1108 17.6109 21.2677C17.7776 21.4246 18.0008 21.5101 18.2317 21.5054ZM9.89055 21.5054L13.4272 21.5054C13.658 21.5101 13.8813 21.4246 14.048 21.2677C14.2146 21.1108 14.3111 20.8954 14.3161 20.6687L14.3161 17.3407C14.3161 16.8776 13.918 16.504 13.4272 16.504L9.89055 16.504C9.77611 16.5015 9.6623 16.5211 9.5556 16.5618C9.44891 16.6025 9.35142 16.6635 9.26872 16.7412C9.18602 16.8189 9.11972 16.9118 9.07361 17.0147C9.0275 17.1176 9.00249 17.2283 9 17.3407L9 20.6687C9.00249 20.7811 9.0275 20.8919 9.07361 20.9947C9.11972 21.0976 9.18602 21.1905 9.26872 21.2682C9.35142 21.3459 9.44891 21.4069 9.5556 21.4476C9.6623 21.4883 9.77611 21.5079 9.89055 21.5054ZM26.5744 14.0017L30.111 14.0017C30.3419 14.0063 30.5652 13.9208 30.7318 13.7639C30.8985 13.607 30.995 13.3916 31 13.165L31 9.83693C31 9.37383 30.6019 9.00021 30.111 9.00021L26.5744 9.00021C26.46 8.99771 26.3462 9.01737 26.2395 9.05807C26.1328 9.09877 26.0353 9.15972 25.9526 9.23742C25.8699 9.31512 25.8036 9.40806 25.7575 9.51092C25.7114 9.61379 25.6864 9.72457 25.6839 9.83693L25.6839 13.165C25.6864 13.2773 25.7114 13.3881 25.7575 13.491C25.8036 13.5938 25.8699 13.6868 25.9526 13.7645C26.0353 13.8422 26.1328 13.9031 26.2395 13.9438C26.3462 13.9845 26.46 14.0042 26.5744 14.0017Z" fill="#422612"/>
<path d="M18.0033 13.9998L21.9949 13.9998C22.124 14.0023 22.2525 13.9827 22.3729 13.942C22.4933 13.9013 22.6034 13.8404 22.6967 13.7627C22.79 13.685 22.8649 13.5921 22.9169 13.4893C22.9689 13.3865 22.9972 13.2757 23 13.1634L23 9.83662C23 9.37369 22.5489 9.00021 21.9949 9.00021L18.0033 9.00021C17.7428 8.99558 17.4908 9.08107 17.3026 9.23789C17.1145 9.39471 17.0057 9.61005 17 9.83662L17 13.1634C17.0057 13.39 17.1145 13.6053 17.3026 13.7621C17.4908 13.919 17.7428 14.0044 18.0033 13.9998Z" fill="#422612"/>
<path d="M9.83758 13.9998L13.1639 13.9998C13.381 14.0044 13.591 13.919 13.7478 13.7621C13.9045 13.6053 13.9952 13.39 14 13.1634L14 9.83664C14 9.37372 13.6255 9.00024 13.1639 9.00024L9.83758 9.00024C9.72995 8.99774 9.6229 9.0174 9.52255 9.05808C9.4222 9.09877 9.33051 9.15969 9.25273 9.23736C9.17495 9.31503 9.11259 9.40793 9.06922 9.51076C9.02586 9.61359 9.00233 9.72432 8.99999 9.83664L8.99999 13.1634C9.00233 13.2757 9.02586 13.3865 9.06922 13.4893C9.11259 13.5921 9.17495 13.685 9.25273 13.7627C9.33051 13.8404 9.4222 13.9013 9.52255 13.942C9.6229 13.9827 9.72995 14.0023 9.83758 13.9998Z" fill="#422612"/>
<path d="M10 37.9999L30.0016 37.9999C32.6529 37.9999 35.1956 36.9993 37.0707 35.218C37.9918 34.3527 38.7263 33.3112 39.2297 32.1565C39.7332 31.0018 39.9952 29.7579 40 28.5L40 9.50003C40 6.98095 38.9458 4.56479 37.0707 2.78196C35.1629 0.987932 32.6312 -0.00838673 30.0016 5.69821e-05L10.0016 5.87306e-05C7.35026 5.89623e-05 4.80594 1.00072 2.93084 2.78197C2.0095 3.64715 1.27474 4.68857 0.770988 5.84328C0.267234 6.99798 0.0049504 8.24198 7.68345e-07 9.50003L2.42937e-06 28.5C2.6496e-06 31.0191 1.05415 33.4352 2.92925 35.218C4.83754 37.0123 7.36988 38.0086 10 37.9999ZM4.3779 9.10895C4.3779 7.79637 4.92733 6.53762 5.90481 5.60979C6.89914 4.6745 8.21882 4.15507 9.58952 4.15946L17.3678 4.15946L17.3678 5.55279C17.3683 5.66457 17.3915 5.7751 17.4363 5.8777C17.481 5.9803 17.5463 6.07283 17.6282 6.14971C17.7976 6.30891 18.0224 6.39736 18.2559 6.39671L21.7665 6.39671C22.0005 6.3976 22.2258 6.30915 22.3958 6.14971C22.4776 6.07278 22.5428 5.98023 22.5875 5.87765C22.6323 5.77506 22.6556 5.66455 22.6561 5.55279L22.6561 4.15946L30.4328 4.15946C31.1164 4.15946 31.7936 4.28613 32.4261 4.53629C33.0539 4.78217 33.6277 5.14617 34.1159 5.60821C34.5972 6.06376 34.9817 6.61018 35.2468 7.21528C35.5078 7.81309 35.6426 8.45754 35.6429 9.10895L35.6429 28.8911C35.6429 29.5418 35.5071 30.1894 35.2436 30.791C34.9816 31.3927 34.5951 31.939 34.1096 32.3981C33.6224 32.8573 33.0458 33.2215 32.4102 33.47C31.7732 33.7178 31.0947 33.8435 30.4105 33.8405L9.58952 33.8405C8.20795 33.8405 6.88229 33.318 5.90481 32.3918C4.92733 31.4624 4.3779 30.2036 4.3779 28.8911L4.3779 9.10895Z" fill="#422612"/>
</svg>
